<svg xmlns="http://www.w3.org/2000/svg" viewBox="0 0 170.38 304"><defs><style>.cls-1{fill:#fff;stroke:#fff;stroke-linecap:square;stroke-miterlimit:10;stroke-width:7px;}</style></defs><title>Zasób 1</title><g id="Warstwa_2" data-name="Warstwa 2"><g id="Warstwa_1-2" data-name="Warstwa 1"><path class="cls-1" d="M40.42,3.5l-18.78,153h18l-21.27,27L4,300.5h18l13.31-108,21.31-27-12.2,99H62.38c4.19-39.25,25.46-210,32-261Zm18.28,144h-18Q47.89,89,55.06,30.5h18Q65.88,89,58.7,147.5Z"/><path class="cls-1" d="M166.42,3.5h-54c-5.94,51-26.6,221.75-32,261h18q1.65-13.5,3.31-27h0l8.84-72,14.69,27c-.74,6-2.58,21-3.32,27l-1.1,9-10.11,9h-9l-3.31,27h9l30.31-27,6.63-54-14.68-27h18Zm-35.68,144h-18l14.37-117h18Z"/></g></g></svg>