<?xml version="1.0" standalone="no"?>
<!DOCTYPE svg PUBLIC "-//W3C//DTD SVG 20010904//EN"
 "http://www.w3.org/TR/2001/REC-SVG-20010904/DTD/svg10.dtd">
<svg version="1.0" xmlns="http://www.w3.org/2000/svg"
 width="512.000000pt" height="512.000000pt" viewBox="0 0 512.000000 512.000000"
 preserveAspectRatio="xMidYMid meet">
<metadata>
Created by potrace 1.11, written by Peter Selinger 2001-2013
</metadata>
<g transform="translate(0.000000,512.000000) scale(0.100000,-0.100000)"
fill="#000000" stroke="none">
<path d="M0 2560 l0 -2560 2560 0 2560 0 0 2560 0 2560 -2560 0 -2560 0 0
-2560z m3345 1416 c395 -60 604 -300 622 -716 4 -94 2 -145 -11 -205 -29 -142
-114 -285 -222 -375 -49 -40 -52 -46 -23 -55 37 -12 148 -126 193 -199 91
-147 122 -287 113 -509 -7 -165 -29 -263 -85 -377 -94 -191 -255 -322 -470
-383 -74 -21 -97 -22 -614 -25 l-538 -3 0 1431 0 1430 473 0 c349 0 495 -4
562 -14z m-1352 -676 l54 -20 6 -107 c4 -58 7 -158 7 -221 l0 -114 -27 6 c-16
3 -73 9 -128 12 -170 11 -257 -31 -323 -154 l-32 -60 0 -756 0 -756 -230 0
-230 0 0 1075 0 1075 225 0 225 0 0 -40 0 -40 52 38 c110 78 284 106 401 62z"/>
<path d="M2780 3196 l0 -376 218 0 c245 0 291 8 364 63 49 37 102 112 118 165
21 70 24 213 6 296 -23 99 -60 151 -141 191 l-60 30 -252 3 -253 4 0 -376z"/>
<path d="M2780 1975 l0 -437 253 4 c220 4 258 6 302 24 72 27 156 113 183 187
46 122 46 331 1 453 -29 78 -104 153 -179 179 -47 17 -90 20 -307 23 l-253 3
0 -436z"/>
</g>
</svg>
