<?xml version="1.0" standalone="no"?>
<!DOCTYPE svg PUBLIC "-//W3C//DTD SVG 20010904//EN"
 "http://www.w3.org/TR/2001/REC-SVG-20010904/DTD/svg10.dtd">
<svg version="1.0" xmlns="http://www.w3.org/2000/svg"
 width="512.000000pt" height="512.000000pt" viewBox="0 0 512.000000 512.000000"
 preserveAspectRatio="xMidYMid meet">
<metadata>
Created by potrace 1.11, written by Peter Selinger 2001-2013
</metadata>
<g transform="translate(0.000000,512.000000) scale(0.100000,-0.100000)"
fill="#000000" stroke="none">
<path d="M0 2560 l0 -2560 2560 0 2560 0 0 2560 0 2560 -2560 0 -2560 0 0
-2560z m2415 250 l0 -1890 -237 0 -238 0 0 667 0 668 -140 -140 -140 -140 0
-777 0 -778 -240 0 -240 0 0 858 1 857 149 155 c83 85 150 155 150 157 0 2
-67 3 -150 3 l-150 0 0 1125 0 1125 618 0 617 0 0 -1890z m1525 765 l0 -1125
-150 0 c-82 0 -150 -3 -150 -8 0 -4 67 -75 150 -157 l150 -150 0 -405 -1 -405
-304 -202 -305 -203 -312 0 -313 0 0 1890 0 1890 618 0 617 0 0 -1125z"/>
<path d="M1660 3445 l0 -775 140 0 140 0 0 775 0 775 -140 0 -140 0 0 -775z"/>
<path d="M3180 3445 l0 -775 140 0 140 0 0 775 0 775 -140 0 -140 0 0 -775z"/>
<path d="M3180 1827 l0 -427 60 0 c56 0 66 4 140 53 l80 52 0 235 0 235 -140
140 -140 140 0 -428z"/>
</g>
</svg>
